<?xml version="1.0" standalone="no"?>
<!DOCTYPE svg PUBLIC "-//W3C//DTD SVG 20010904//EN"
 "http://www.w3.org/TR/2001/REC-SVG-20010904/DTD/svg10.dtd">
<svg version="1.0" xmlns="http://www.w3.org/2000/svg"
 width="128.000000pt" height="128.000000pt" viewBox="0 0 128.000000 128.000000"
 preserveAspectRatio="xMidYMid meet">
<g transform="translate(0.000000,128.000000) scale(0.100000,-0.100000)"
fill="#0f5ddb" stroke="none">
<path d="M58 1250 c38 -35 52 -38 52 -10 0 21 -34 40 -68 40 -13 -1 -8 -8 16
-30z"/>
<path d="M203 1208 c-4 -7 -8 -17 -8 -23 -1 -5 -5 -22 -9 -37 -18 -62 21 -113
121 -159 72 -34 178 -63 199 -55 8 3 20 1 27 -4 7 -6 21 -17 31 -24 17 -12 16
-13 -15 -9 -32 3 128 -53 181 -64 14 -3 39 -16 57 -29 17 -13 38 -24 45 -24 7
0 4 6 -7 12 -11 6 -24 17 -30 24 -5 7 -28 17 -51 23 -23 6 -52 21 -66 34 -14
13 -29 22 -34 20 -5 -1 -16 2 -24 7 -13 9 -13 11 0 20 8 5 20 9 25 9 6 0 4 -3
-3 -6 -6 -2 -10 -9 -6 -14 3 -5 13 -5 25 1 16 9 19 7 19 -9 0 -19 28 -31 90
-36 31 -3 124 -37 128 -48 2 -4 8 -4 14 -1 5 4 23 -3 39 -15 30 -23 44 -27 34
-11 -3 6 3 10 14 10 12 0 21 -6 21 -14 0 -16 40 -32 88 -35 7 -1 10 -6 6 -12
-5 -8 1 -10 20 -7 14 3 26 2 26 -2 0 -5 8 -6 18 -3 19 5 34 -9 45 -39 8 -24 2
-23 -24 5 -12 12 -19 16 -15 10 9 -16 -10 -17 -20 -2 -4 8 -9 7 -14 -2 -7 -10
-12 -10 -23 -1 -7 7 -16 9 -20 6 -10 -10 -64 6 -86 27 -12 12 -21 15 -21 7 0
-6 -7 -3 -15 8 -8 11 -15 14 -15 7 0 -17 -15 -16 -34 2 -8 8 -18 15 -22 15 -4
0 -21 10 -38 23 -17 13 -49 33 -71 46 -40 23 -40 23 -17 -2 13 -14 35 -28 48
-31 14 -4 23 -10 20 -14 -6 -11 103 -74 115 -66 5 3 9 -3 9 -13 0 -15 2 -16
10 -3 9 13 14 7 11 -12 0 -4 6 -5 15 -1 9 3 14 0 12 -8 -2 -7 3 -13 10 -14 7
0 24 -11 38 -24 13 -13 24 -18 24 -13 0 6 -9 17 -21 25 -23 17 -15 27 16 20
11 -3 38 -7 60 -10 22 -3 46 -10 53 -16 16 -13 32 6 32 40 0 28 -88 72 -102
51 -6 -10 -8 -8 -8 4 0 17 -32 41 -47 36 -4 -2 -32 12 -60 29 -42 26 -59 45
-84 95 -30 59 -49 83 -95 118 -10 8 -5 -1 13 -20 55 -62 108 -164 67 -132 -5
4 4 -5 21 -21 22 -20 25 -25 10 -21 -11 4 -27 13 -37 21 -11 10 -18 11 -23 4
-3 -6 -12 -11 -18 -11 -7 0 -6 4 3 10 12 8 11 10 -6 10 -12 0 -60 13 -105 29
-46 17 -109 37 -140 45 -36 10 -75 31 -105 56 -55 45 -57 46 -74 26 -10 -13
-8 -14 13 -11 16 3 31 -3 48 -21 24 -26 24 -26 -39 -21 -34 4 -68 9 -74 13 -7
4 -24 9 -38 11 -41 4 -136 60 -148 88 -16 35 -15 70 3 105 15 29 5 43 -12 18z
m392 -288 c8 -13 -5 -13 -25 0 -13 8 -13 10 2 10 9 0 20 -4 23 -10z"/>
<path d="M1240 1212 c0 -4 4 -12 9 -17 5 -6 12 -20 16 -32 5 -20 3 -23 -22
-24 -15 0 -37 -4 -48 -9 -16 -7 -13 -9 17 -9 20 -1 43 2 52 5 16 6 21 48 10
78 -6 16 -34 23 -34 8z"/>
<path d="M240 1195 c-7 -9 -11 -17 -9 -20 3 -2 10 5 17 15 14 24 10 26 -8 5z"/>
<path d="M390 1190 c0 -6 7 -10 15 -10 8 0 15 2 15 4 0 2 -7 6 -15 10 -8 3
-15 1 -15 -4z"/>
<path d="M1143 1183 c-13 -2 -23 -8 -23 -13 0 -5 14 -4 30 1 27 10 42 21 23
18 -5 -1 -18 -4 -30 -6z"/>
<path d="M226 1135 c7 -36 28 -62 69 -82 36 -19 31 -12 -15 19 -18 13 -39 39
-47 58 -12 32 -13 32 -7 5z"/>
<path d="M620 1097 c0 -37 5 -69 11 -73 8 -4 9 14 4 62 -10 90 -15 94 -15 11z"/>
<path d="M650 1140 c0 -19 3 -21 12 -12 9 9 9 15 0 24 -9 9 -12 7 -12 -12z"/>
<path d="M820 1140 c0 -5 9 -10 21 -10 11 0 17 5 14 10 -3 6 -13 10 -21 10 -8
0 -14 -4 -14 -10z"/>
<path d="M960 1120 c-11 -7 -4 -10 27 -10 23 0 45 5 48 10 8 13 -55 13 -75 0z"/>
<path d="M503 1107 c0 -7 8 -13 18 -13 13 0 15 3 7 13 -6 7 -14 13 -18 13 -3
0 -7 -6 -7 -13z"/>
<path d="M660 1073 c0 -31 23 -63 63 -87 25 -14 57 -41 72 -58 16 -20 22 -24
16 -11 -17 34 -58 72 -97 88 -21 8 -34 21 -34 32 0 20 -20 55 -20 36z"/>
<path d="M485 1053 c26 -24 88 -65 73 -47 -9 10 -32 28 -50 38 -18 10 -28 15
-23 9z"/>
<path d="M780 1047 c0 -3 19 -23 41 -46 23 -23 39 -44 35 -48 -3 -4 -12 1 -19
11 -7 10 -18 16 -24 14 -6 -2 -19 6 -28 17 -16 19 -16 19 -2 -5 9 -14 20 -24
27 -22 10 2 34 -22 77 -77 17 -21 -13 66 -32 95 -13 21 -75 71 -75 61z"/>
<path d="M1250 1020 c-9 -6 -10 -10 -3 -10 6 0 15 5 18 10 8 12 4 12 -15 0z"/>
<path d="M1165 1010 c-3 -5 -1 -10 4 -10 6 0 11 5 11 10 0 6 -2 10 -4 10 -3 0
-8 -4 -11 -10z"/>
<path d="M663 991 c16 -10 28 -22 27 -26 -1 -6 63 -45 75 -45 7 0 -52 51 -85
73 -13 9 -29 17 -35 17 -5 0 3 -9 18 -19z"/>
<path d="M934 965 c19 -37 86 -114 86 -100 -1 6 -7 19 -15 29 -8 11 -15 26
-15 33 0 28 16 11 42 -45 16 -31 28 -51 28 -44 0 7 -12 35 -26 62 -21 40 -30
49 -45 45 -13 -4 -27 3 -45 22 -27 28 -27 28 -10 -2z"/>
<path d="M1185 980 c3 -5 8 -10 11 -10 2 0 4 5 4 10 0 6 -5 10 -11 10 -5 0 -7
-4 -4 -10z"/>
<path d="M245 970 c19 -8 83 -14 74 -6 -2 2 -24 6 -49 9 -30 4 -38 3 -25 -3z"/>
<path d="M20 945 c-8 -9 -8 -15 -2 -15 12 0 26 19 19 26 -2 2 -10 -2 -17 -11z"/>
<path d="M150 942 c0 -4 13 -8 29 -7 16 0 27 3 24 7 -6 11 -53 10 -53 0z"/>
<path d="M280 943 c0 -10 148 -52 188 -53 29 0 8 17 -35 28 -51 14 -153 30
-153 25z"/>
<path d="M40 921 c0 -5 11 -11 25 -14 15 -2 24 0 22 6 -4 13 -47 20 -47 8z"/>
<path d="M278 893 c6 -2 18 -2 25 0 6 3 1 5 -13 5 -14 0 -19 -2 -12 -5z"/>
<path d="M1061 890 c0 -8 10 -27 22 -43 23 -27 23 -27 19 8 -3 25 -9 35 -18
31 -7 -3 -15 0 -18 7 -3 7 -5 6 -5 -3z"/>
<path d="M1115 886 c2 -6 6 -24 10 -40 5 -23 8 -27 16 -15 5 7 9 21 9 29 0 13
-1 13 -11 0 -8 -12 -10 -10 -6 11 2 16 -1 26 -9 26 -7 0 -11 -5 -9 -11z"/>
<path d="M90 871 c-32 -8 -30 -9 25 -11 33 -2 113 -4 179 -6 125 -2 189 -10
182 -22 -2 -4 26 -7 63 -7 40 -1 78 -7 98 -17 42 -21 105 -35 83 -18 -12 9
-10 11 10 7 14 -2 34 -8 45 -12 20 -7 20 -7 0 8 -11 8 -40 18 -63 22 -24 4
-80 20 -123 36 -80 29 -105 35 -81 21 13 -9 -175 -8 -308 1 -41 3 -91 2 -110
-2z"/>
<path d="M113 806 c-40 -7 -75 -15 -78 -18 -3 -3 52 -3 123 0 91 3 131 1 136
-7 4 -6 22 -11 39 -12 65 -1 -26 -28 -104 -30 -59 -2 -86 -8 -133 -31 -62 -31
-72 -48 -15 -24 30 12 76 21 159 30 14 1 48 10 75 19 28 9 59 17 70 19 11 2
23 8 27 13 5 6 8 6 8 -1 0 -7 15 -9 43 -6 23 3 89 5 147 4 93 0 99 1 55 9 -27
5 -86 9 -130 8 -44 -2 -87 1 -95 4 -8 4 -55 12 -105 17 -49 5 -103 12 -120 14
-16 3 -62 -1 -102 -8z"/>
<path d="M465 800 c-12 -5 8 -6 50 -3 39 3 72 7 74 9 8 8 -104 3 -124 -6z"/>
<path d="M1175 786 c9 -13 23 -27 31 -30 9 -3 6 5 -8 24 -26 36 -45 40 -23 6z"/>
<path d="M1217 779 c7 -7 15 -10 18 -7 3 3 -2 9 -12 12 -14 6 -15 5 -6 -5z"/>
<path d="M743 767 c3 -20 97 -36 97 -18 0 5 -9 7 -19 4 -11 -3 -33 2 -50 10
-20 10 -30 11 -28 4z"/>
<path d="M186 751 c-4 -5 3 -7 14 -4 23 6 26 13 6 13 -8 0 -17 -4 -20 -9z"/>
<path d="M1235 750 c-3 -5 0 -7 9 -4 11 4 17 -3 21 -23 10 -44 13 -50 14 -25
2 43 -28 78 -44 52z"/>
<path d="M515 740 c-27 -4 -70 -16 -94 -26 -28 -11 -46 -14 -48 -7 -5 14 -94
-3 -153 -28 -40 -18 -190 -125 -190 -135 0 -6 41 15 60 31 17 14 137 45 173
45 12 0 28 5 34 11 6 6 17 9 25 7 7 -3 -6 -16 -32 -33 -25 -15 -64 -43 -87
-62 -48 -40 -102 -106 -78 -97 8 3 15 9 15 13 0 12 96 62 104 54 3 -3 6 -1 6
6 0 6 6 11 13 9 13 -2 57 23 57 33 0 10 -68 -7 -88 -22 -9 -7 -6 -1 8 15 14
15 41 36 60 47 36 20 74 63 47 54 -6 -3 -37 -6 -67 -9 -30 -2 -68 -7 -85 -11
-30 -7 -30 -7 5 17 41 29 90 44 90 27 0 -7 11 -8 33 -3 17 4 39 7 47 7 8 0 20
3 25 8 6 4 22 10 35 13 14 2 33 7 43 11 10 4 17 3 17 -4 0 -6 7 -11 15 -11 8
0 15 4 15 9 0 4 17 15 38 24 41 17 32 18 -43 7z"/>
<path d="M593 725 c-60 -17 -123 -54 -123 -73 0 -9 14 -3 38 15 45 35 85 53
115 52 12 0 16 -3 10 -6 -7 -2 -13 -9 -13 -14 0 -4 7 -6 15 -3 8 4 15 12 15
20 0 8 5 14 11 14 5 0 7 -4 4 -10 -3 -5 -1 -10 6 -10 7 0 5 -8 -7 -19 -10 -10
-22 -17 -26 -15 -16 9 -111 -20 -136 -42 -21 -18 -23 -23 -10 -24 9 0 21 7 26
16 5 8 23 16 40 16 18 1 37 7 43 15 6 7 19 13 28 13 11 -1 7 -8 -14 -25 -16
-14 -24 -25 -17 -25 7 0 11 -4 8 -8 -3 -5 1 -9 9 -9 17 0 20 14 4 19 -6 2 13
25 41 52 35 33 54 45 59 37 4 -7 23 -12 42 -11 58 0 114 -5 127 -13 6 -5 12
-5 12 -2 0 4 7 -1 16 -9 8 -9 21 -16 28 -16 8 0 19 -7 26 -15 14 -16 56 -20
64 -6 4 5 -4 7 -16 3 -17 -4 -20 -2 -14 13 5 15 4 16 -8 6 -10 -8 -16 -9 -21
-1 -3 5 -15 10 -26 10 -11 0 -22 7 -25 15 -4 8 -13 15 -21 15 -8 0 -11 5 -7
12 5 7 2 9 -8 5 -9 -3 -21 0 -27 6 -9 9 -11 8 -6 -5 6 -14 2 -18 -16 -18 -12
0 -19 3 -15 7 11 12 -56 29 -119 31 -33 0 -83 -5 -112 -13z"/>
<path d="M702 677 c-12 -7 -20 -16 -16 -20 4 -3 -5 -11 -20 -17 -23 -8 -25
-13 -16 -29 13 -26 31 -36 39 -24 3 6 17 9 30 8 13 -1 41 4 62 12 21 7 45 10
53 7 8 -3 24 0 37 6 19 11 21 10 16 -4 -6 -14 -3 -15 16 -5 18 9 20 9 10 -2
-17 -17 -17 -32 -1 -22 7 4 20 8 28 8 43 4 50 6 50 16 0 6 -7 9 -15 5 -18 -7
-47 3 -40 14 7 12 -22 20 -42 13 -16 -6 -16 -5 -4 10 12 15 9 17 -34 14 -29
-2 -49 2 -52 9 -6 15 -50 6 -50 -11 0 -11 14 -14 55 -12 30 1 57 -2 59 -8 1
-5 -13 -10 -32 -11 -21 0 -32 4 -29 10 3 6 0 4 -8 -4 -17 -19 -81 -44 -71 -27
20 33 8 36 -23 6 -43 -42 -46 -18 -3 34 17 20 29 37 27 37 -2 -1 -13 -6 -26
-13z"/>
<path d="M1249 653 c-13 -15 -12 -15 9 -4 23 12 28 21 13 21 -5 0 -15 -7 -22
-17z"/>
<path d="M378 636 c-10 -7 -15 -16 -12 -19 7 -7 44 14 44 25 0 12 -13 9 -32
-6z"/>
<path d="M1057 629 c7 -7 15 -10 18 -7 3 3 -2 9 -12 12 -14 6 -15 5 -6 -5z"/>
<path d="M1030 613 c-16 -6 -39 -33 -40 -45 0 -4 13 0 28 9 16 9 29 22 29 30
0 7 -1 13 -1 12 -1 0 -8 -3 -16 -6z"/>
<path d="M1055 589 c-8 -25 -1 -34 17 -23 7 5 24 9 37 9 13 0 26 6 29 14 4 11
-2 13 -27 8 -20 -4 -30 -3 -26 3 3 6 -1 10 -9 10 -8 0 -18 -9 -21 -21z"/>
<path d="M1159 583 c-13 -16 -12 -17 4 -4 16 13 21 21 13 21 -2 0 -10 -8 -17
-17z"/>
<path d="M390 571 c-8 -16 -7 -19 8 -17 9 2 18 10 20 19 5 23 -15 21 -28 -2z"/>
<path d="M484 575 c-16 -13 -16 -14 -1 -9 17 6 47 -11 47 -26 0 -4 -10 -12
-22 -19 -22 -11 -22 -11 4 -6 16 3 29 0 32 -8 3 -6 3 -1 0 12 -5 18 -3 22 7
16 8 -4 4 2 -8 14 -13 12 -23 26 -23 31 0 14 -13 12 -36 -5z"/>
<path d="M348 562 c-10 -2 -18 -10 -18 -18 0 -8 -9 -23 -19 -33 -11 -11 -25
-29 -31 -42 -9 -15 -14 -18 -20 -10 -5 9 -9 8 -13 -4 -4 -9 -3 -13 3 -10 6 3
10 2 10 -4 0 -5 -4 -11 -9 -13 -5 -1 -13 -21 -16 -43 -9 -50 -6 -47 40 40 39
73 75 124 75 109 0 -5 5 -1 11 9 13 22 10 25 -13 19z"/>
<path d="M690 560 c0 -5 5 -10 11 -10 5 0 7 5 4 10 -3 6 -8 10 -11 10 -2 0 -4
-4 -4 -10z"/>
<path d="M1080 559 c0 -5 5 -7 10 -4 6 3 10 8 10 11 0 2 -4 4 -10 4 -5 0 -10
-5 -10 -11z"/>
<path d="M1001 541 c-23 -18 -23 -18 0 -16 12 1 23 9 25 18 3 21 4 21 -25 -2z"/>
<path d="M1121 540 c-13 -11 -19 -20 -14 -20 6 0 18 9 28 20 23 25 17 25 -14
0z"/>
<path d="M720 523 c6 -13 20 -23 31 -23 12 0 17 4 14 11 -4 5 -12 8 -18 6 -7
-2 -18 3 -25 12 -11 14 -11 13 -2 -6z"/>
<path d="M396 489 c-21 -51 -15 -61 10 -19 11 17 30 34 44 37 22 6 23 7 5 14
-35 14 -43 10 -59 -32z"/>
<path d="M604 506 c11 -9 31 -16 45 -15 24 1 24 2 -5 8 -17 4 -37 11 -45 15
-8 4 -5 0 5 -8z"/>
<path d="M1070 505 c-7 -9 -10 -18 -7 -21 3 -3 10 4 17 15 13 25 8 27 -10 6z"/>
<path d="M549 477 c-11 -20 -11 -21 4 -9 9 8 21 11 27 7 5 -3 10 -2 10 3 0 21
-30 20 -41 -1z"/>
<path d="M680 496 c0 -2 33 -9 73 -16 39 -6 81 -13 92 -16 11 -2 7 2 -10 10
-29 13 -155 31 -155 22z"/>
<path d="M628 468 c13 -8 36 -12 53 -10 39 6 37 13 -3 11 -18 -1 -42 2 -53 5
-15 6 -14 4 3 -6z"/>
<path d="M912 471 c-10 -6 -4 -14 25 -32 47 -29 163 -138 163 -154 0 -7 9 -20
20 -30 11 -10 17 -22 14 -26 -3 -5 -1 -17 5 -26 8 -15 9 -14 7 9 -1 14 -10 38
-20 52 -9 15 -14 31 -11 37 4 5 2 8 -3 7 -5 -2 -32 20 -60 49 -27 28 -68 63
-91 78 -23 14 -39 30 -36 35 7 12 4 12 -13 1z"/>
<path d="M313 448 c-36 -41 -38 -54 -3 -27 34 26 49 49 33 49 -5 0 -19 -10
-30 -22z"/>
<path d="M435 461 c-8 -14 12 -23 35 -16 18 6 25 -2 21 -27 -1 -6 70 1 78 8 2
2 -12 4 -32 4 -20 0 -37 5 -37 10 0 6 8 10 17 10 27 0 11 7 -34 14 -23 3 -44
2 -48 -3z"/>
<path d="M735 460 c11 -5 29 -8 40 -8 16 0 15 2 -5 8 -34 11 -60 11 -35 0z"/>
<path d="M601 444 c0 -11 3 -14 6 -6 3 7 2 16 -1 19 -3 4 -6 -2 -5 -13z"/>
<path d="M810 452 c0 -5 18 -12 39 -16 22 -3 47 -9 57 -13 11 -4 15 -2 11 4
-4 6 -21 13 -39 16 -18 3 -41 8 -50 12 -10 4 -18 3 -18 -3z"/>
<path d="M621 446 c2 -2 15 -9 29 -15 24 -11 24 -11 6 3 -16 13 -49 24 -35 12z"/>
<path d="M680 440 c9 -5 51 -13 95 -19 44 -6 105 -18 135 -27 89 -25 98 -26
53 -5 -24 11 -60 23 -80 26 -21 3 -58 10 -83 15 -73 14 -137 20 -120 10z"/>
<path d="M397 426 c-4 -10 -1 -13 8 -9 8 3 12 9 9 14 -7 12 -11 11 -17 -5z"/>
<path d="M625 410 c3 -5 8 -10 11 -10 2 0 4 5 4 10 0 6 -5 10 -11 10 -5 0 -7
-4 -4 -10z"/>
<path d="M710 411 c0 -8 62 -36 72 -33 12 3 180 -39 218 -54 19 -8 43 -22 54
-32 18 -16 18 -16 8 4 -13 25 -88 56 -192 80 -41 9 -94 22 -117 29 -24 7 -43
9 -43 6z"/>
<path d="M452 390 c7 -11 16 -20 20 -20 15 0 8 15 -12 28 -19 12 -20 11 -8 -8z"/>
<path d="M530 401 c0 -6 4 -12 10 -16 5 -3 7 -12 4 -19 -4 -11 5 -13 43 -9 57
7 69 13 24 13 -38 0 -74 17 -66 31 4 5 1 9 -4 9 -6 0 -11 -4 -11 -9z"/>
<path d="M352 380 c-14 -13 -22 -33 -22 -53 0 -24 3 -28 10 -17 5 8 10 21 10
29 0 8 7 23 17 33 23 26 11 32 -15 8z"/>
<path d="M660 390 c20 -13 33 -13 25 0 -3 6 -14 10 -23 10 -15 0 -15 -2 -2
-10z"/>
<path d="M733 369 c20 -11 37 -24 37 -29 0 -14 -12 -12 -37 5 -18 13 -22 13
-34 -1 -7 -8 -8 -14 -3 -13 31 5 57 -6 95 -41 28 -25 54 -40 70 -40 33 0 195
-64 220 -86 11 -9 19 -12 19 -6 0 19 -58 53 -143 83 -45 17 -92 32 -104 34
-30 4 -90 48 -74 53 7 2 18 -1 24 -7 6 -6 22 -11 36 -11 52 0 194 -51 223 -80
15 -16 28 -23 28 -16 0 37 -112 90 -245 116 -27 6 -66 22 -87 35 -21 14 -43
25 -50 25 -7 -1 4 -10 25 -21z"/>
<path d="M373 355 c-9 -24 1 -27 15 -5 8 13 8 20 2 20 -6 0 -13 -7 -17 -15z"/>
<path d="M410 349 c-7 -11 -10 -23 -7 -25 2 -2 9 7 15 21 14 30 7 33 -8 4z"/>
<path d="M490 360 c0 -5 5 -10 11 -10 5 0 7 5 4 10 -3 6 -8 10 -11 10 -2 0 -4
-4 -4 -10z"/>
<path d="M605 330 c-4 -6 -3 -10 2 -9 28 5 53 -2 47 -13 -5 -10 -4 -10 6 -1
16 15 14 18 -22 27 -15 3 -30 1 -33 -4z"/>
<path d="M438 313 c-28 -33 -31 -48 -4 -19 15 15 25 30 23 32 -2 2 -11 -4 -19
-13z"/>
<path d="M390 285 c-11 -21 -11 -27 0 -38 10 -9 11 -9 6 0 -4 7 -2 22 4 34 7
11 10 23 7 25 -2 2 -10 -7 -17 -21z"/>
<path d="M449 283 c-24 -28 -24 -28 4 -4 15 14 27 26 27 28 0 8 -8 1 -31 -24z"/>
<path d="M717 303 c-7 -11 14 -37 33 -41 8 -2 20 -12 27 -22 8 -11 20 -17 27
-14 8 3 17 1 21 -5 3 -6 2 -11 -3 -11 -5 0 -9 -6 -9 -14 0 -13 14 -14 42 -4 6
1 28 -8 50 -21 22 -14 45 -25 50 -27 35 -7 125 -59 125 -72 0 -25 13 -5 16 25
2 21 1 24 -6 13 -7 -10 -12 -11 -17 -4 -5 6 -31 22 -59 36 -28 13 -67 34 -85
45 -19 11 -45 24 -59 28 -30 9 -121 63 -137 82 -6 8 -13 11 -16 6z"/>
<path d="M0 289 c0 -5 9 -9 20 -9 11 0 20 2 20 4 0 2 -9 6 -20 9 -11 3 -20 1
-20 -4z"/>
<path d="M567 282 c-16 -17 -15 -20 6 -40 13 -12 27 -22 33 -22 5 0 1 5 -9 11
-16 9 -16 12 -2 26 15 14 28 14 68 -2 9 -4 17 -3 17 3 0 19 -70 25 -89 8 -23
-21 -36 -8 -14 16 9 10 14 18 11 18 -3 0 -12 -8 -21 -18z"/>
<path d="M502 277 c-8 -10 -6 -13 7 -13 11 0 17 6 14 13 -3 7 -6 13 -8 13 -1
0 -7 -6 -13 -13z"/>
<path d="M93 253 c15 -2 39 -2 55 0 15 2 2 4 -28 4 -30 0 -43 -2 -27 -4z"/>
<path d="M186 246 c3 -8 13 -17 21 -20 13 -6 14 -4 3 9 -12 14 -10 16 16 10
23 -4 25 -3 9 4 -31 15 -55 13 -49 -3z"/>
<path d="M530 240 c0 -5 5 -10 11 -10 5 0 7 5 4 10 -3 6 -8 10 -11 10 -2 0 -4
-4 -4 -10z"/>
<path d="M290 236 c0 -2 9 -6 20 -9 11 -3 20 -1 20 4 0 5 -9 9 -20 9 -11 0
-20 -2 -20 -4z"/>
<path d="M363 228 c22 -8 26 -13 16 -24 -8 -9 -8 -14 -1 -14 6 0 14 5 17 11 5
6 12 4 22 -8 13 -17 13 -16 3 4 -12 26 -40 43 -67 42 -12 0 -9 -4 10 -11z"/>
<path d="M410 237 c0 -3 15 -10 32 -16 18 -6 28 -7 23 -2 -12 10 -55 25 -55
18z"/>
<path d="M486 225 c-6 -16 19 -33 31 -21 4 3 1 6 -5 6 -6 0 -9 7 -6 15 4 8 2
15 -4 15 -5 0 -13 -7 -16 -15z"/>
<path d="M87 214 c3 -7 9 -14 14 -14 14 0 10 17 -5 23 -10 4 -13 1 -9 -9z"/>
<path d="M244 210 c1 -14 6 -24 9 -22 11 4 11 6 -1 27 -11 19 -12 18 -8 -5z"/>
<path d="M725 202 c0 -21 14 -41 53 -79 39 -38 51 -55 46 -69 -6 -17 -5 -17 9
1 12 14 16 16 17 6 0 -8 3 -11 7 -8 3 4 21 -5 40 -19 18 -14 39 -24 45 -22 11
4 -90 78 -107 78 -6 0 -32 22 -59 49 -35 35 -44 51 -35 57 8 5 25 -7 50 -36
24 -28 46 -44 63 -45 13 0 33 -8 43 -17 23 -21 143 -78 163 -77 8 0 -21 18
-65 41 -44 22 -89 48 -100 58 -23 20 -55 33 -55 22 0 -5 -23 14 -51 40 -28 26
-54 48 -58 48 -3 0 -6 -13 -6 -28z"/>
<path d="M291 204 c6 -8 18 -14 26 -14 20 0 8 16 -17 23 -17 4 -19 3 -9 -9z"/>
<path d="M639 199 c12 -12 25 -18 29 -14 4 4 -2 13 -12 21 -30 22 -43 17 -17
-7z"/>
<path d="M128 193 c7 -3 16 -2 19 1 4 3 -2 6 -13 5 -11 0 -14 -3 -6 -6z"/>
<path d="M356 153 c-6 -14 -5 -15 5 -6 7 7 10 15 7 18 -3 3 -9 -2 -12 -12z"/>
<path d="M660 126 c0 -2 9 -6 20 -9 11 -3 18 -1 14 4 -5 9 -34 13 -34 5z"/>
<path d="M331 115 c3 -2 27 -7 55 -10 35 -4 45 -3 34 5 -15 9 -98 15 -89 5z"/>
<path d="M1152 109 c4 -12 48 -46 48 -37 0 2 -12 15 -26 27 -15 13 -24 17 -22
10z"/>
<path d="M770 102 c0 -4 10 -13 23 -21 22 -14 22 -14 3 8 -20 22 -26 25 -26
13z"/>
<path d="M610 96 c0 -2 8 -10 18 -17 15 -13 16 -12 3 4 -13 16 -21 21 -21 13z"/>
<path d="M705 89 c-18 -7 -18 -8 -2 -8 10 -1 31 -8 48 -16 29 -15 29 -15 17 4
-14 24 -36 31 -63 20z"/>
<path d="M656 73 c-6 -14 -5 -15 5 -6 7 7 10 15 7 18 -3 3 -9 -2 -12 -12z"/>
<path d="M510 50 c-8 -15 -8 -20 3 -20 7 0 13 9 13 20 0 11 -1 20 -3 20 -1 0
-7 -9 -13 -20z"/>
<path d="M367 49 c13 -12 31 -15 30 -4 -1 5 -10 10 -20 10 -10 1 -14 -2 -10
-6z"/>
<path d="M460 51 c0 -5 7 -11 14 -14 10 -4 13 -1 9 9 -6 15 -23 19 -23 5z"/>
<path d="M1175 50 c6 -10 4 -12 -8 -7 -13 5 -17 1 -17 -16 0 -16 3 -18 9 -8 7
11 11 10 20 -5 9 -17 10 -16 11 8 0 15 -5 30 -12 34 -7 5 -8 3 -3 -6z"/>
<path d="M425 40 c-3 -5 -1 -10 4 -10 6 0 11 5 11 10 0 6 -2 10 -4 10 -3 0 -8
-4 -11 -10z"/>
<path d="M570 35 c-7 -9 -8 -15 -2 -15 5 0 12 7 16 15 3 8 4 15 2 15 -2 0 -9
-7 -16 -15z"/>
<path d="M664 40 c-5 -5 -20 -11 -32 -13 -12 -2 -28 -10 -35 -17 -10 -12 -9
-12 3 -3 8 6 23 9 32 8 9 -2 24 6 34 16 17 19 16 27 -2 9z"/>
<path d="M790 43 c0 -13 29 -38 35 -31 3 3 -4 13 -15 23 -11 10 -20 13 -20 8z"/>
<path d="M1082 30 c0 -14 2 -19 5 -12 2 6 2 18 0 25 -3 6 -5 1 -5 -13z"/>
<path d="M1115 30 c-3 -5 -1 -10 4 -10 6 0 11 5 11 10 0 6 -2 10 -4 10 -3 0
-8 -4 -11 -10z"/>
</g>
</svg>
